<?xml version="1.0" encoding="UTF-8" standalone="no"?>
<!-- Created with Inkscape (http://www.inkscape.org/) -->

<svg
   version="1.1"
   id="svg2"
   width="1400"
   height="250"
   viewBox="0 0 1400 250"
   sodipodi:docname="launcher-header.svg"
   inkscape:export-filename="/home/kazoku/.config/rofi/assets/dark/launcher-header.png"
   inkscape:export-xdpi="96"
   inkscape:export-ydpi="96"
   inkscape:version="1.1.1 (3bf5ae0d25, 2021-09-20, custom)"
   xmlns:inkscape="http://www.inkscape.org/namespaces/inkscape"
   xmlns:sodipodi="http://sodipodi.sourceforge.net/DTD/sodipodi-0.dtd"
   xmlns:xlink="http://www.w3.org/1999/xlink"
   xmlns="http://www.w3.org/2000/svg"
   xmlns:svg="http://www.w3.org/2000/svg">
  <defs
     id="defs6">
    <linearGradient
       inkscape:collect="always"
       id="linearGradient2092">
      <stop
         style="stop-color:#ffffff;stop-opacity:1;"
         offset="0"
         id="stop2088" />
      <stop
         style="stop-color:#ffffff;stop-opacity:0.83290589"
         offset="0.59840387"
         id="stop2804" />
      <stop
         style="stop-color:#ffffff;stop-opacity:0;"
         offset="1"
         id="stop2090" />
    </linearGradient>
    <radialGradient
       inkscape:collect="always"
       xlink:href="#linearGradient2092"
       id="radialGradient2096"
       cx="605.01996"
       cy="248.06348"
       fx="605.01996"
       fy="248.06348"
       r="290.01523"
       gradientTransform="matrix(1.4407413,0,0,0.00248391,-173.96217,224.73384)"
       gradientUnits="userSpaceOnUse" />
  </defs>
  <sodipodi:namedview
     id="namedview4"
     pagecolor="#000000"
     bordercolor="#666666"
     borderopacity="1.0"
     inkscape:pageshadow="2"
     inkscape:pageopacity="0"
     inkscape:pagecheckerboard="true"
     showgrid="false"
     units="px"
     inkscape:zoom="1.7657143"
     inkscape:cx="791.74756"
     inkscape:cy="286.2864"
     inkscape:current-layer="g8" />
  <g
     inkscape:groupmode="layer"
     inkscape:label="Image"
     id="g8">
    <rect
       style="fill:#0f131a;fill-opacity:1;stroke:none;stroke-width:5;paint-order:stroke fill markers"
       id="rect855"
       width="1400"
       height="250"
       x="0"
       y="0"
       rx="0"
       ry="0" />
    <g
       aria-label="アユダーク"
       transform="matrix(0.99741227,0,0,1.0025944,-0.01402301,-15.752617)"
       id="text3451"
       style="font-size:36.6668px;font-family:'Arial Black';-inkscape-font-specification:'Arial Black, ';stroke:#ffffff;stroke-width:1.5">
      <path
         style="color:#000000;-inkscape-font-specification:'IBM Plex Sans JP Bold';fill:#ffffff;stroke:none;-inkscape-stroke:none"
         d="m 613.61523,190.61328 v 0.75 5.44336 h 23.32618 c -0.65717,0.92126 -1.2751,1.84817 -2.27735,2.7168 -1.10211,0.95516 -2.44943,1.71622 -3.81836,2.46093 v -3.74414 h -6.56054 v 5.3711 c 0,2.15302 -0.30977,3.91194 -0.89258,5.27929 l -0.002,0.002 v 0.002 c -0.5599,1.34378 -1.44617,2.47821 -2.69726,3.43359 l -0.002,0.002 -0.002,0.002 c -1.23778,0.96272 -2.98885,1.90406 -5.24218,2.79102 l -0.84961,0.33398 3.6582,5.70117 0.58203,-0.24804 c 2.64287,-1.12197 4.83552,-2.4013 6.57031,-3.85547 l 0.002,-0.002 0.002,-0.002 c 1.74441,-1.48788 3.07726,-3.2988 3.97656,-5.40234 v -0.002 c 0.69822,-1.59089 1.06159,-3.47218 1.25977,-5.49804 l 1.83984,2.51367 0.58008,-0.32813 c 2.69799,-1.52386 5.03234,-3.31845 6.99414,-5.38086 h 0.002 l 0.002,-0.002 c 1.96811,-2.09427 3.41911,-4.39677 4.33593,-6.89258 l 0.0469,-0.125 v -5.32031 z m 1.5,1.5 h 27.83399 v 3.52344 c -0.84498,2.25736 -2.15792,4.35189 -3.97656,6.28711 -1.7084,1.79523 -3.76051,3.3584 -6.08985,4.73828 l -2.09765,-2.86719 c 1.79633,-0.8908 3.4464,-1.91241 4.86132,-3.13867 1.52109,-1.31828 2.70686,-2.72796 3.53907,-4.23633 l 0.61328,-1.11328 h -24.6836 z m 10.66993,7.62695 h 3.56054 v 4.3711 c -0.0476,2.73599 -0.49987,5.04263 -1.33008,6.93359 l -0.002,0.004 -0.002,0.004 c -0.81178,1.90188 -1.99448,3.51166 -3.57227,4.85743 -1.45962,1.22274 -3.36575,2.33027 -5.625,3.33984 l -2.02539,-3.15625 c 1.89476,-0.80794 3.61063,-1.63879 4.81446,-2.57422 l 0.002,-0.002 c 1.43468,-1.09615 2.50383,-2.45315 3.16601,-4.03906 0.68831,-1.61487 1.01368,-3.57131 1.01368,-5.86719 z"
         id="path2207" />
      <path
         style="color:#000000;-inkscape-font-specification:'IBM Plex Sans JP Bold';fill:#ffffff;stroke:none;-inkscape-stroke:none"
         d="m 652.62891,191.93359 v 6.26758 h 17.25586 c -0.0829,2.21597 -0.21802,4.52616 -0.45899,7.02344 v 0.004 0.004 c -0.22226,2.53374 -0.49496,4.71038 -0.79687,6.68555 h -19.26368 v 6.26562 h 32.30079 v -6.26562 h -0.75 -5.6875 c 0.38869,-2.64776 0.72714,-5.46819 0.97265,-8.61524 v -0.002 c 0.27026,-3.4891 0.41682,-7.02526 0.44141,-10.61133 l 0.006,-0.75586 z m 1.5,1.5 h 20.98242 c -0.0388,3.28967 -0.15802,6.54722 -0.40625,9.75196 -0.26766,3.43095 -0.62015,6.55425 -1.05664,9.36718 l -0.13477,0.86524 h 6.65235 v 3.26562 h -29.30079 v -3.26562 h 19.06641 l 0.10156,-0.63086 c 0.34567,-2.14808 0.64118,-4.62017 0.88672,-7.41797 v -0.006 c 0.26994,-2.79873 0.44178,-5.42907 0.51563,-7.89062 l 0.0234,-0.77149 h -17.33007 z"
         id="path2209" />
      <path
         style="color:#000000;-inkscape-font-specification:'IBM Plex Sans JP Bold';fill:#ffffff;stroke:none;-inkscape-stroke:none"
         d="m 717.56445,186.99023 -0.60742,0.22266 -3.61523,1.33203 0.43554,0.76758 c 1.03232,1.82457 2.02171,3.89914 2.96485,6.2207 l 0.27734,0.68555 4.09766,-1.60547 -0.26758,-0.69531 c -0.7955,-2.06332 -1.78736,-4.18275 -2.97461,-6.35938 z m -4.5957,1.25391 -0.5918,0.21484 -3.67578,1.33594 0.46485,0.7793 c 0.48026,0.80615 0.92454,1.76715 1.37109,2.7168 h -8.87695 c 0.34161,-0.70271 0.67012,-1.34036 1.07226,-2.34571 l 0.31055,-0.77734 -6.23242,-1.72656 -0.24219,0.63867 c -1.05127,2.77154 -2.43415,5.27361 -4.14844,7.51172 -1.70872,2.23082 -3.83643,4.22889 -6.39453,5.99804 l -0.65625,0.45508 4.05469,5.14844 0.58203,-0.41602 c 2.00829,-1.43803 3.68095,-2.84535 5.01758,-4.23242 1.25406,-1.30051 2.37326,-2.74686 3.41015,-4.28125 h 10.26368 c -0.58832,2.50199 -1.51869,4.74508 -2.80274,6.73047 -2.30062,-1.74786 -4.56054,-3.39349 -6.74414,-4.8418 l -0.54492,-0.36132 -3.99414,4.52929 0.6875,0.48242 c 2.21479,1.54821 4.29735,3.16054 6.32031,4.80274 -2.85359,2.25286 -6.41883,4.01958 -10.91211,5.14844 l -0.90039,0.22461 2.95313,6.00195 0.59179,-0.1543 c 6.57212,-1.71771 11.84657,-4.82931 15.74219,-9.32812 v -0.002 c 3.79402,-4.40597 5.93834,-9.84952 6.48828,-16.21093 l 1.03125,-0.36133 -0.27344,-0.71875 c -0.8216,-2.16604 -1.83995,-4.30543 -3.05664,-6.41602 z m 3.86133,0.61328 c 0.89388,1.68284 1.65644,3.32219 2.30273,4.92188 l -1.32226,0.51953 c -0.75201,-1.79144 -1.53625,-3.43046 -2.35157,-4.93555 z m -4.58008,1.24414 c 0.9108,1.63166 1.68828,3.27705 2.35352,4.93555 l -0.41016,0.14453 -0.0352,0.49219 c -0.45484,6.31987 -2.52069,11.56964 -6.20117,15.84375 -3.56407,4.11503 -8.36208,6.98534 -14.4082,8.66797 l -1.61524,-3.28516 c 4.62309,-1.27351 8.50754,-3.11978 11.47266,-5.68164 l 0.67187,-0.58008 -0.68359,-0.5664 c -2.07897,-1.72131 -4.29003,-3.37552 -6.57031,-4.99415 l 2.02734,-2.29687 c 2.21849,1.48929 4.48588,3.10001 6.83399,4.90625 l 0.62109,0.47852 0.44922,-0.64063 c 1.79987,-2.56037 3.02633,-5.52499 3.67969,-8.86719 l 0.17382,-0.89453 h -12.9375 l -0.22265,0.33789 c -1.05091,1.60025 -2.21894,3.06777 -3.50586,4.40235 -1.11185,1.15381 -2.60403,2.36193 -4.26367,3.59179 L 687.5,203.32422 c 2.38228,-1.73287 4.45256,-3.6547 6.11133,-5.82031 1.66929,-2.17935 3.00415,-4.62045 4.07031,-7.26368 l 3.30859,0.91602 c -0.41695,0.98552 -0.83301,1.95486 -1.14843,2.51562 l -0.62891,1.11915 h 13.67969 l -0.45117,-1.04688 c -0.49571,-1.15004 -1.03691,-2.1533 -1.58399,-3.13672 z"
         id="path2211" />
      <path
         style="color:#000000;-inkscape-font-specification:'IBM Plex Sans JP Bold';fill:#ffffff;stroke:none;-inkscape-stroke:none"
         d="m 723.43359,201.65039 v 6.63281 h 30.83203 v -0.75 -5.88281 z m 1.5,1.5 h 27.83203 v 3.63281 h -27.83203 z"
         id="path2213" />
      <path
         style="color:#000000;-inkscape-font-specification:'IBM Plex Sans JP Bold';fill:#ffffff;stroke:none;-inkscape-stroke:none"
         d="m 771.02344,188.07812 -0.24219,0.63672 c -1.05127,2.77154 -2.4322,5.27167 -4.14648,7.50977 -1.70872,2.23082 -3.83643,4.22889 -6.39454,5.99805 l -0.6582,0.45507 4.09766,5.19336 0.58398,-0.42968 c 1.95447,-1.43493 3.5952,-2.81395 4.92578,-4.14454 l 0.004,-0.002 0.002,-0.002 c 1.23008,-1.25328 2.3388,-2.6524 3.37305,-4.13867 h 10.05469 c -1.03584,3.85992 -2.79116,7.15501 -5.46875,9.78906 -2.86388,2.81693 -6.91646,4.92715 -12.20313,6.29687 l -0.89062,0.23243 2.98828,6.07226 0.5957,-0.16015 c 4.53019,-1.21967 8.45144,-3.09523 11.74024,-5.63086 l 0.002,-0.002 c 3.28842,-2.56044 5.84957,-5.71194 7.6582,-9.42968 1.8096,-3.71974 2.79621,-7.898 2.9707,-12.50977 l 0.0293,-0.7793 h -0.7793 -13.35937 c 0.37493,-0.78462 0.75285,-1.54737 1.11328,-2.45703 l 0.30859,-0.7793 z m 0.87304,1.79102 3.38086,0.92383 c -0.39477,0.93958 -0.79015,1.86908 -1.19531,2.64258 l -0.57617,1.09765 h 14.9082 c -0.24718,4.10469 -1.1139,7.83396 -2.71875,11.13282 -1.71138,3.51783 -4.11442,6.47611 -7.23047,8.90234 -2.96829,2.28778 -6.53535,3.98287 -10.63867,5.1582 l -1.64844,-3.34961 c 5.02487,-1.42204 9.10655,-3.49231 12.02735,-6.36523 3.11025,-3.05968 5.18878,-6.89446 6.21875,-11.44141 l 0.20898,-0.91601 h -12.81445 l -0.22266,0.32812 c -1.0499,1.551 -2.20582,2.96853 -3.46679,4.25391 -1.11339,1.11339 -2.5807,2.30587 -4.19922,3.52929 l -2.21485,-2.80859 c 2.38219,-1.73283 4.45066,-3.65477 6.10938,-5.82031 1.67014,-2.18047 3.00587,-4.62275 4.07226,-7.26758 z"
         id="path2215" />
    </g>
    <circle
       id="path1031"
       style="fill:#000000;stroke:none"
       cx="-16.302668"
       cy="297.41666"
       r="1.5" />
    <path
       style="color:#000000;fill:url(#radialGradient2096);stroke-width:1;-inkscape-stroke:none"
       d="m 279.87737,210.94285 v 28.81482 h 835.67503 v -28.81482 z"
       id="path1558" />
  </g>
</svg>
