<?xml version="1.0" encoding="UTF-8" standalone="no"?>
<!-- Created with Inkscape (http://www.inkscape.org/) -->

<svg
   width="1920"
   height="1080"
   viewBox="0 0 507.99999 285.75001"
   version="1.1"
   id="svg5"
   inkscape:version="1.1.1 (3bf5ae0d25, 2021-09-20, custom)"
   sodipodi:docname="ayu-dark.svg"
   inkscape:export-filename="/home/kazoku/.wallpaper/ayu-dark.png"
   inkscape:export-xdpi="96"
   inkscape:export-ydpi="96"
   xmlns:inkscape="http://www.inkscape.org/namespaces/inkscape"
   xmlns:sodipodi="http://sodipodi.sourceforge.net/DTD/sodipodi-0.dtd"
   xmlns="http://www.w3.org/2000/svg"
   xmlns:svg="http://www.w3.org/2000/svg">
  <sodipodi:namedview
     id="namedview7"
     pagecolor="#c4cbdc"
     bordercolor="#666666"
     borderopacity="1.0"
     inkscape:pageshadow="2"
     inkscape:pageopacity="0"
     inkscape:pagecheckerboard="false"
     inkscape:document-units="mm"
     showgrid="false"
     units="px"
     inkscape:zoom="0.64756617"
     inkscape:cx="1138.1076"
     inkscape:cy="647.03813"
     inkscape:current-layer="layer1" />
  <defs
     id="defs2">
    <inkscape:path-effect
       effect="bspline"
       id="path-effect146496"
       is_visible="true"
       lpeversion="1"
       weight="33.333333"
       steps="2"
       helper_size="0"
       apply_no_weight="true"
       apply_with_weight="true"
       only_selected="false" />
    <filter
       inkscape:collect="always"
       style="color-interpolation-filters:sRGB"
       id="filter145390"
       x="-0.064595018"
       y="-0.25386202"
       width="1.12919"
       height="1.507724">
      <feGaussianBlur
         inkscape:collect="always"
         stdDeviation="1.0900824"
         id="feGaussianBlur145392" />
    </filter>
    <filter
       inkscape:collect="always"
       style="color-interpolation-filters:sRGB"
       id="filter145394"
       x="-0.064595018"
       y="-0.25386202"
       width="1.12919"
       height="1.507724">
      <feGaussianBlur
         inkscape:collect="always"
         stdDeviation="1.0900824"
         id="feGaussianBlur145396" />
    </filter>
    <filter
       inkscape:collect="always"
       style="color-interpolation-filters:sRGB"
       id="filter145398"
       x="-0.064595018"
       y="-0.25386202"
       width="1.12919"
       height="1.507724">
      <feGaussianBlur
         inkscape:collect="always"
         stdDeviation="1.0900824"
         id="feGaussianBlur145400" />
    </filter>
    <filter
       inkscape:collect="always"
       style="color-interpolation-filters:sRGB"
       id="filter145402"
       x="-0.064595018"
       y="-0.25386202"
       width="1.12919"
       height="1.507724">
      <feGaussianBlur
         inkscape:collect="always"
         stdDeviation="1.0900824"
         id="feGaussianBlur145404" />
    </filter>
    <filter
       inkscape:collect="always"
       style="color-interpolation-filters:sRGB"
       id="filter145406"
       x="-0.064595018"
       y="-0.25386202"
       width="1.12919"
       height="1.507724">
      <feGaussianBlur
         inkscape:collect="always"
         stdDeviation="1.0900824"
         id="feGaussianBlur145408" />
    </filter>
    <filter
       inkscape:collect="always"
       style="color-interpolation-filters:sRGB"
       id="filter145410"
       x="-0.064595018"
       y="-0.25386202"
       width="1.12919"
       height="1.507724">
      <feGaussianBlur
         inkscape:collect="always"
         stdDeviation="1.0900824"
         id="feGaussianBlur145412" />
    </filter>
    <filter
       inkscape:collect="always"
       style="color-interpolation-filters:sRGB"
       id="filter145414"
       x="-0.064595018"
       y="-0.25386202"
       width="1.12919"
       height="1.507724">
      <feGaussianBlur
         inkscape:collect="always"
         stdDeviation="1.0900824"
         id="feGaussianBlur145416" />
    </filter>
    <filter
       inkscape:collect="always"
       style="color-interpolation-filters:sRGB"
       id="filter145418"
       x="-0.064595018"
       y="-0.25386202"
       width="1.12919"
       height="1.507724">
      <feGaussianBlur
         inkscape:collect="always"
         stdDeviation="1.0900824"
         id="feGaussianBlur145420" />
    </filter>
    <filter
       inkscape:collect="always"
       style="color-interpolation-filters:sRGB"
       id="filter145422"
       x="-0.064595018"
       y="-0.25386202"
       width="1.12919"
       height="1.507724">
      <feGaussianBlur
         inkscape:collect="always"
         stdDeviation="1.0900824"
         id="feGaussianBlur145424" />
    </filter>
    <filter
       inkscape:collect="always"
       style="color-interpolation-filters:sRGB"
       id="filter145426"
       x="-0.064595018"
       y="-0.25386202"
       width="1.12919"
       height="1.507724">
      <feGaussianBlur
         inkscape:collect="always"
         stdDeviation="1.0900824"
         id="feGaussianBlur145428" />
    </filter>
  </defs>
  <g
     inkscape:label="Layer 1"
     inkscape:groupmode="layer"
     id="layer1">
    <rect
       style="fill:#131721;fill-opacity:1;stroke:none;stroke-width:1.32292;stroke-miterlimit:4;stroke-dasharray:none;stroke-opacity:1"
       id="rect36141"
       width="508"
       height="285.75"
       x="-7.9714013e-14"
       y="-1.8651747e-14"
       sodipodi:insensitive="true" />
    <path
       id="rect134600"
       style="fill:#fdfdfd;stroke:none;stroke-width:0.793751;paint-order:stroke fill markers"
       d="m 212.83749,107.70172 h 82.32502 c 4.14575,0 7.48331,3.33756 7.48331,7.48332 v 12.48858 c 0,4.14576 -3.33756,7.48332 -7.48331,7.48332 h -82.32502 c -4.14576,0 -7.48332,-3.33756 -7.48332,-7.48332 v -12.48858 c 0,-4.14576 3.33756,-7.48332 7.48332,-7.48332 z" />
    <g
       aria-label="アユ"
       id="text4478"
       style="font-size:25.4px;line-height:1.25;font-family:'Architects Daughter';-inkscape-font-specification:'Architects Daughter';fill:#e6b450;stroke:#e6b450;stroke-width:0.79375;paint-order:markers stroke fill">
      <path
         d="m 230.9495,82.081194 h 20.32 v 3.0734 q -0.9144,2.4892 -2.8956,4.597399 -1.9812,2.0828 -4.7244,3.6322 l -1.8034,-2.4638 q -0.0508,2.921 -0.9652,5.0038 -0.889,2.0828 -2.6162,3.556 -1.7272,1.447797 -4.4196,2.590797 l -1.9558,-3.047997 q 2.3876,-0.9398 3.7592,-2.0066 1.397,-1.0668 2.032,-2.5908 0.6604,-1.5494 0.6604,-3.8608 v -3.200399 h 3.5052 v 3.022599 q 1.9812,-0.9398 3.5052,-2.260599 1.524,-1.3208 2.3368,-2.794 h -16.7386 z"
         style="font-weight:bold;font-family:'IBM Plex Sans JP';-inkscape-font-specification:'IBM Plex Sans JP Bold'"
         id="path155489" />
      <path
         d="m 277.0505,96.838593 v 3.301997 h -21.336 v -3.301997 h 13.2842 q 0.3556,-2.2098 0.6096,-5.1054 0.2794,-2.895599 0.3556,-5.435599 h -11.9888 v -3.302 h 15.5956 q -0.0254,3.7084 -0.3048,7.315199 -0.2794,3.5814 -0.7366,6.5278 z"
         style="font-weight:bold;font-family:'IBM Plex Sans JP';-inkscape-font-specification:'IBM Plex Sans JP Bold'"
         id="path155491" />
    </g>
    <g
       aria-label="ダーク"
       id="text24570"
       style="font-size:25.4px;line-height:1.25;font-family:'Architects Daughter';-inkscape-font-specification:'Architects Daughter';fill:#131721;stroke:#131721;stroke-width:0.79375;paint-order:stroke fill markers">
      <path
         d="m 239.6998,109.93583 q 1.2192,2.2352 2.032,4.3434 l -1.8796,0.7366 q -0.9906,-2.4384 -2.0828,-4.3688 z m -3.175,0.8636 q 1.2446,2.159 2.0828,4.3688 l -0.508,0.1778 q -0.4826,6.7056 -4.4196,11.2776 -3.937,4.5466 -10.6426,6.2992 l -1.5748,-3.2004 q 5.1562,-1.2954 8.3312,-4.0386 -2.3622,-1.9558 -4.9784,-3.7846 l 2.0828,-2.3622 q 2.4892,1.651 5.1308,3.683 1.8034,-2.5654 2.4638,-5.9436 h -8.0518 q -1.1176,1.7018 -2.4892,3.1242 -1.3462,1.397 -3.4036,2.8702 l -2.159,-2.7432 q 2.7178,-1.8796 4.5466,-4.2672 1.8288,-2.3876 2.9464,-5.334 l 3.302,0.9144 q -0.6096,1.524 -1.0668,2.3368 h 7.7978 q -0.635,-1.4732 -1.3462,-2.667 z"
         style="font-weight:bold;font-family:'IBM Plex Sans JP';-inkscape-font-specification:'IBM Plex Sans JP Bold'"
         id="path155512" />
      <path
         d="m 264.8458,123.52483 h -20.32 v -3.556 h 20.32 z"
         style="font-weight:bold;font-family:'IBM Plex Sans JP';-inkscape-font-specification:'IBM Plex Sans JP Bold'"
         id="path155514" />
      <path
         d="m 289.6108,113.99983 q -0.1778,4.699 -2.0066,8.4582 -1.8288,3.7592 -5.1562,6.35 -3.3274,2.5654 -7.9502,3.81 l -1.6002,-3.2512 q 5.588,-1.4478 8.6868,-4.4958 3.1242,-3.0734 4.1656,-7.6708 h -7.9502 q -1.1176,1.651 -2.4638,3.0226 -1.3462,1.3462 -3.3528,2.8194 l -2.1844,-2.7686 q 2.7178,-1.8796 4.5466,-4.2672 1.8288,-2.3876 2.9464,-5.334 l 3.3528,0.9144 q -0.5334,1.3462 -1.0922,2.413 z"
         style="font-weight:bold;font-family:'IBM Plex Sans JP';-inkscape-font-specification:'IBM Plex Sans JP Bold'"
         id="path155516" />
    </g>
    <g
       id="g145814"
       transform="translate(5.8017511,-33.64554)">
      <rect
         style="fill:#f29668;fill-opacity:1;stroke:none;stroke-width:1.3229;stroke-miterlimit:4;stroke-dasharray:none;stroke-opacity:1"
         id="rect41691"
         width="40.501541"
         height="10.30559"
         x="193.3727"
         y="-245.40739"
         rx="5.1527948"
         ry="5.1527948"
         transform="rotate(90)" />
      <rect
         style="fill:#7fd962;fill-opacity:1;stroke:none;stroke-width:1.3229;stroke-miterlimit:4;stroke-dasharray:none;stroke-opacity:1"
         id="rect92371"
         width="40.501541"
         height="10.30559"
         x="193.3727"
         y="-213.6329"
         rx="5.1527948"
         ry="5.1527948"
         transform="rotate(90)" />
      <rect
         style="fill:#d95757;fill-opacity:1;stroke:none;stroke-width:1.3229;stroke-miterlimit:4;stroke-dasharray:none;stroke-opacity:1"
         id="rect92383"
         width="40.501541"
         height="10.30559"
         x="193.3727"
         y="-181.8584"
         rx="5.1527948"
         ry="5.1527948"
         transform="rotate(90)" />
      <rect
         style="fill:#6c5980;fill-opacity:1;stroke:none;stroke-width:1.3229;stroke-miterlimit:4;stroke-dasharray:none;stroke-opacity:1"
         id="rect104550"
         width="40.501541"
         height="10.30559"
         x="193.3727"
         y="-229.52014"
         rx="5.1527948"
         ry="5.1527948"
         transform="rotate(90)" />
      <rect
         style="fill:#39bae6;fill-opacity:1;stroke:none;stroke-width:1.3229;stroke-miterlimit:4;stroke-dasharray:none;stroke-opacity:1"
         id="rect104562"
         width="40.501541"
         height="10.30559"
         x="193.3727"
         y="-197.74567"
         rx="5.1527948"
         ry="5.1527948"
         transform="rotate(90)" />
      <rect
         style="fill:#d2a6ff;fill-opacity:1;stroke:none;stroke-width:1.3229;stroke-miterlimit:4;stroke-dasharray:none;stroke-opacity:1"
         id="rect92365"
         width="40.501541"
         height="10.30559"
         x="193.3727"
         y="-308.95645"
         rx="5.1527948"
         ry="5.1527948"
         transform="rotate(90)" />
      <rect
         style="fill:#73b8ff;fill-opacity:1;stroke:none;stroke-width:1.3229;stroke-miterlimit:4;stroke-dasharray:none;stroke-opacity:1"
         id="rect92377"
         width="40.501541"
         height="10.30559"
         x="193.3727"
         y="-277.18192"
         rx="5.1527948"
         ry="5.1527948"
         transform="rotate(90)" />
      <rect
         style="fill:#ffb454;fill-opacity:1;stroke:none;stroke-width:1.3229;stroke-miterlimit:4;stroke-dasharray:none;stroke-opacity:1"
         id="rect104544"
         width="40.501541"
         height="10.30559"
         x="193.3727"
         y="-324.84369"
         rx="5.1527948"
         ry="5.1527948"
         transform="rotate(90)" />
      <rect
         style="fill:#aad94c;fill-opacity:1;stroke:none;stroke-width:1.3229;stroke-miterlimit:4;stroke-dasharray:none;stroke-opacity:1"
         id="rect104556"
         width="40.501541"
         height="10.30559"
         x="193.3727"
         y="-293.06915"
         rx="5.1527948"
         ry="5.1527948"
         transform="rotate(90)" />
      <rect
         style="fill:#f07178;fill-opacity:1;stroke:none;stroke-width:1.3229;stroke-miterlimit:4;stroke-dasharray:none;stroke-opacity:1"
         id="rect104568"
         width="40.501541"
         height="10.30559"
         x="193.3727"
         y="-261.29465"
         rx="5.1527948"
         ry="5.1527948"
         transform="rotate(90)" />
      <rect
         style="mix-blend-mode:normal;fill:#f29668;fill-opacity:1;stroke:none;stroke-width:1.3229;stroke-miterlimit:4;stroke-dasharray:none;stroke-opacity:1;filter:url(#filter145426)"
         id="rect145034"
         width="40.501541"
         height="10.30559"
         x="234.18816"
         y="-245.40739"
         rx="5.1527948"
         ry="5.1527948"
         transform="rotate(90,20.40773,-20.40773)" />
      <rect
         style="mix-blend-mode:normal;fill:#7fd962;fill-opacity:1;stroke:none;stroke-width:1.3229;stroke-miterlimit:4;stroke-dasharray:none;stroke-opacity:1;filter:url(#filter145422)"
         id="rect145036"
         width="40.501541"
         height="10.30559"
         x="234.18816"
         y="-213.6329"
         rx="5.1527948"
         ry="5.1527948"
         transform="rotate(90,20.40773,-20.40773)" />
      <rect
         style="mix-blend-mode:normal;fill:#d95757;fill-opacity:1;stroke:none;stroke-width:1.3229;stroke-miterlimit:4;stroke-dasharray:none;stroke-opacity:1;filter:url(#filter145418)"
         id="rect145038"
         width="40.501541"
         height="10.30559"
         x="234.18816"
         y="-181.8584"
         rx="5.1527948"
         ry="5.1527948"
         transform="rotate(90,20.40773,-20.40773)" />
      <rect
         style="mix-blend-mode:normal;fill:#6c5980;fill-opacity:1;stroke:none;stroke-width:1.3229;stroke-miterlimit:4;stroke-dasharray:none;stroke-opacity:1;filter:url(#filter145414)"
         id="rect145040"
         width="40.501541"
         height="10.30559"
         x="234.18816"
         y="-229.52014"
         rx="5.1527948"
         ry="5.1527948"
         transform="rotate(90,20.40773,-20.40773)" />
      <rect
         style="mix-blend-mode:normal;fill:#39bae6;fill-opacity:1;stroke:none;stroke-width:1.3229;stroke-miterlimit:4;stroke-dasharray:none;stroke-opacity:1;filter:url(#filter145410)"
         id="rect145042"
         width="40.501541"
         height="10.30559"
         x="234.18816"
         y="-197.74567"
         rx="5.1527948"
         ry="5.1527948"
         transform="rotate(90,20.40773,-20.40773)" />
      <rect
         style="mix-blend-mode:normal;fill:#d2a6ff;fill-opacity:1;stroke:none;stroke-width:1.3229;stroke-miterlimit:4;stroke-dasharray:none;stroke-opacity:1;filter:url(#filter145406)"
         id="rect145044"
         width="40.501541"
         height="10.30559"
         x="234.18816"
         y="-308.95645"
         rx="5.1527948"
         ry="5.1527948"
         transform="rotate(90,20.40773,-20.40773)" />
      <rect
         style="mix-blend-mode:normal;fill:#73b8ff;fill-opacity:1;stroke:none;stroke-width:1.3229;stroke-miterlimit:4;stroke-dasharray:none;stroke-opacity:1;filter:url(#filter145402)"
         id="rect145046"
         width="40.501541"
         height="10.30559"
         x="234.18816"
         y="-277.18192"
         rx="5.1527948"
         ry="5.1527948"
         transform="rotate(90,20.40773,-20.40773)" />
      <rect
         style="mix-blend-mode:normal;fill:#ffb454;fill-opacity:1;stroke:none;stroke-width:1.3229;stroke-miterlimit:4;stroke-dasharray:none;stroke-opacity:1;filter:url(#filter145398)"
         id="rect145048"
         width="40.501541"
         height="10.30559"
         x="234.18816"
         y="-324.84369"
         rx="5.1527948"
         ry="5.1527948"
         transform="rotate(90,20.40773,-20.40773)" />
      <rect
         style="mix-blend-mode:normal;fill:#aad94c;fill-opacity:1;stroke:none;stroke-width:1.3229;stroke-miterlimit:4;stroke-dasharray:none;stroke-opacity:1;filter:url(#filter145394)"
         id="rect145050"
         width="40.501541"
         height="10.30559"
         x="234.18816"
         y="-293.06915"
         rx="5.1527948"
         ry="5.1527948"
         transform="rotate(90,20.40773,-20.40773)" />
      <rect
         style="mix-blend-mode:normal;fill:#f07178;fill-opacity:1;stroke:none;stroke-width:1.3229;stroke-miterlimit:4;stroke-dasharray:none;stroke-opacity:1;filter:url(#filter145390)"
         id="rect145052"
         width="40.501541"
         height="10.30559"
         x="234.18816"
         y="-261.29465"
         rx="5.1527948"
         ry="5.1527948"
         transform="rotate(90,20.40773,-20.40773)" />
    </g>
  </g>
</svg>
